<mxfile host="app.diagrams.net" modified="2020-08-01T06:49:04.694Z" agent="5.0 (Windows)" etag="gj9n9oUCrQfu59uAp49y" version="13.5.8" type="github">
  <diagram id="C5RBs43oDa-KdzZeNtuy" name="Page-1">
    <mxGraphModel dx="1609" dy="541" grid="1" gridSize="10" guides="1" tooltips="1" connect="1" arrows="1" fold="1" page="1" pageScale="1" pageWidth="827" pageHeight="1169" math="0" shadow="0">
      <root>
        <mxCell id="WIyWlLk6GJQsqaUBKTNV-0" />
        <mxCell id="WIyWlLk6GJQsqaUBKTNV-1" parent="WIyWlLk6GJQsqaUBKTNV-0" />
        <mxCell id="BJws64ASkt3ljexb0WcB-0" value="Server" style="whiteSpace=wrap;html=1;aspect=fixed;fillColor=#dae8fc;strokeColor=#6c8ebf;" vertex="1" parent="WIyWlLk6GJQsqaUBKTNV-1">
          <mxGeometry x="110" y="80" width="130" height="130" as="geometry" />
        </mxCell>
        <mxCell id="BJws64ASkt3ljexb0WcB-1" value="Front" style="whiteSpace=wrap;html=1;aspect=fixed;fillColor=#ffe6cc;strokeColor=#d79b00;" vertex="1" parent="WIyWlLk6GJQsqaUBKTNV-1">
          <mxGeometry x="360" y="105" width="80" height="80" as="geometry" />
        </mxCell>
        <mxCell id="BJws64ASkt3ljexb0WcB-2" value="" style="endArrow=classic;startArrow=classic;html=1;exitX=1;exitY=0.5;exitDx=0;exitDy=0;entryX=0;entryY=0.75;entryDx=0;entryDy=0;" edge="1" parent="WIyWlLk6GJQsqaUBKTNV-1" source="BJws64ASkt3ljexb0WcB-0" target="BJws64ASkt3ljexb0WcB-1">
          <mxGeometry width="50" height="50" relative="1" as="geometry">
            <mxPoint x="370" y="300" as="sourcePoint" />
            <mxPoint x="250" y="190" as="targetPoint" />
            <Array as="points">
              <mxPoint x="300" y="160" />
            </Array>
          </mxGeometry>
        </mxCell>
        <mxCell id="BJws64ASkt3ljexb0WcB-3" value="Home" style="shape=note;whiteSpace=wrap;html=1;backgroundOutline=1;darkOpacity=0.05;gradientColor=#b3b3b3;fillColor=#f5f5f5;strokeColor=#666666;" vertex="1" parent="WIyWlLk6GJQsqaUBKTNV-1">
          <mxGeometry x="530" y="20" width="80" height="100" as="geometry" />
        </mxCell>
        <mxCell id="BJws64ASkt3ljexb0WcB-4" value="ViemsPage" style="shape=note;whiteSpace=wrap;html=1;backgroundOutline=1;darkOpacity=0.05;gradientColor=#b3b3b3;fillColor=#f5f5f5;strokeColor=#666666;" vertex="1" parent="WIyWlLk6GJQsqaUBKTNV-1">
          <mxGeometry x="530" y="185" width="80" height="100" as="geometry" />
        </mxCell>
        <mxCell id="BJws64ASkt3ljexb0WcB-5" value="&lt;div&gt;CatList&lt;/div&gt;&lt;div&gt;&lt;br&gt;&lt;/div&gt;" style="shape=note;whiteSpace=wrap;html=1;backgroundOutline=1;darkOpacity=0.05;gradientColor=#b3b3b3;fillColor=#f5f5f5;strokeColor=#666666;" vertex="1" parent="WIyWlLk6GJQsqaUBKTNV-1">
          <mxGeometry x="530" y="340" width="80" height="100" as="geometry" />
        </mxCell>
        <mxCell id="BJws64ASkt3ljexb0WcB-6" value="" style="endArrow=classic;html=1;entryX=-0.025;entryY=0.64;entryDx=0;entryDy=0;entryPerimeter=0;" edge="1" parent="WIyWlLk6GJQsqaUBKTNV-1" target="BJws64ASkt3ljexb0WcB-3">
          <mxGeometry width="50" height="50" relative="1" as="geometry">
            <mxPoint x="440" y="160" as="sourcePoint" />
            <mxPoint x="490" y="110" as="targetPoint" />
          </mxGeometry>
        </mxCell>
        <mxCell id="BJws64ASkt3ljexb0WcB-7" value="" style="endArrow=classic;html=1;exitX=1;exitY=0.75;exitDx=0;exitDy=0;entryX=0.025;entryY=0.42;entryDx=0;entryDy=0;entryPerimeter=0;" edge="1" parent="WIyWlLk6GJQsqaUBKTNV-1" source="BJws64ASkt3ljexb0WcB-1" target="BJws64ASkt3ljexb0WcB-4">
          <mxGeometry width="50" height="50" relative="1" as="geometry">
            <mxPoint x="470" y="240" as="sourcePoint" />
            <mxPoint x="520" y="190" as="targetPoint" />
          </mxGeometry>
        </mxCell>
        <mxCell id="BJws64ASkt3ljexb0WcB-8" value="" style="endArrow=classic;html=1;entryX=0;entryY=0.5;entryDx=0;entryDy=0;entryPerimeter=0;exitX=1;exitY=0.75;exitDx=0;exitDy=0;" edge="1" parent="WIyWlLk6GJQsqaUBKTNV-1" source="BJws64ASkt3ljexb0WcB-1" target="BJws64ASkt3ljexb0WcB-5">
          <mxGeometry width="50" height="50" relative="1" as="geometry">
            <mxPoint x="370" y="300" as="sourcePoint" />
            <mxPoint x="520" y="380" as="targetPoint" />
          </mxGeometry>
        </mxCell>
        <mxCell id="BJws64ASkt3ljexb0WcB-9" value="Mysql" style="shape=cylinder2;whiteSpace=wrap;html=1;boundedLbl=1;backgroundOutline=1;size=15;fillColor=#dae8fc;strokeColor=#6c8ebf;" vertex="1" parent="WIyWlLk6GJQsqaUBKTNV-1">
          <mxGeometry x="130" y="290" width="60" height="80" as="geometry" />
        </mxCell>
        <mxCell id="BJws64ASkt3ljexb0WcB-10" value="" style="endArrow=classic;startArrow=classic;html=1;entryX=0.423;entryY=1;entryDx=0;entryDy=0;entryPerimeter=0;exitX=0.467;exitY=0.025;exitDx=0;exitDy=0;exitPerimeter=0;" edge="1" parent="WIyWlLk6GJQsqaUBKTNV-1" source="BJws64ASkt3ljexb0WcB-9" target="BJws64ASkt3ljexb0WcB-0">
          <mxGeometry width="50" height="50" relative="1" as="geometry">
            <mxPoint x="140" y="290" as="sourcePoint" />
            <mxPoint x="190" y="240" as="targetPoint" />
          </mxGeometry>
        </mxCell>
        <mxCell id="BJws64ASkt3ljexb0WcB-40" value="" style="endArrow=classic;startArrow=classic;html=1;entryX=0.5;entryY=1;entryDx=0;entryDy=0;entryPerimeter=0;exitX=0.272;exitY=-0.103;exitDx=0;exitDy=0;exitPerimeter=0;" edge="1" parent="WIyWlLk6GJQsqaUBKTNV-1" source="BJws64ASkt3ljexb0WcB-12" target="BJws64ASkt3ljexb0WcB-9">
          <mxGeometry width="50" height="50" relative="1" as="geometry">
            <mxPoint x="120" y="450" as="sourcePoint" />
            <mxPoint x="420" y="490" as="targetPoint" />
          </mxGeometry>
        </mxCell>
        <mxCell id="BJws64ASkt3ljexb0WcB-41" value="&lt;div&gt;Admin&lt;/div&gt;&lt;div&gt;&lt;br&gt;&lt;/div&gt;" style="rhombus;whiteSpace=wrap;html=1;" vertex="1" parent="WIyWlLk6GJQsqaUBKTNV-1">
          <mxGeometry x="414" y="465" width="80" height="80" as="geometry" />
        </mxCell>
        <mxCell id="BJws64ASkt3ljexb0WcB-42" value="" style="endArrow=classic;startArrow=classic;html=1;exitX=1;exitY=0.5;exitDx=0;exitDy=0;entryX=0.5;entryY=0;entryDx=0;entryDy=0;" edge="1" parent="WIyWlLk6GJQsqaUBKTNV-1" source="BJws64ASkt3ljexb0WcB-0" target="BJws64ASkt3ljexb0WcB-41">
          <mxGeometry width="50" height="50" relative="1" as="geometry">
            <mxPoint x="370" y="420" as="sourcePoint" />
            <mxPoint x="420" y="370" as="targetPoint" />
          </mxGeometry>
        </mxCell>
        <mxCell id="BJws64ASkt3ljexb0WcB-11" value="" style="shape=table;html=1;whiteSpace=wrap;startSize=0;container=1;collapsible=0;childLayout=tableLayout;" vertex="1" parent="WIyWlLk6GJQsqaUBKTNV-1">
          <mxGeometry x="-30" y="400" width="360" height="29" as="geometry" />
        </mxCell>
        <mxCell id="BJws64ASkt3ljexb0WcB-12" value="" style="shape=partialRectangle;html=1;whiteSpace=wrap;collapsible=0;dropTarget=0;pointerEvents=0;fillColor=none;top=0;left=0;bottom=0;right=0;points=[[0,0.5],[1,0.5]];portConstraint=eastwest;" vertex="1" parent="BJws64ASkt3ljexb0WcB-11">
          <mxGeometry width="360" height="29" as="geometry" />
        </mxCell>
        <mxCell id="BJws64ASkt3ljexb0WcB-13" value="id" style="shape=partialRectangle;html=1;whiteSpace=wrap;connectable=0;fillColor=none;top=0;left=0;bottom=0;right=0;overflow=hidden;" vertex="1" parent="BJws64ASkt3ljexb0WcB-12">
          <mxGeometry width="60" height="29" as="geometry" />
        </mxCell>
        <mxCell id="BJws64ASkt3ljexb0WcB-14" value="file" style="shape=partialRectangle;html=1;whiteSpace=wrap;connectable=0;fillColor=none;top=0;left=0;bottom=0;right=0;overflow=hidden;" vertex="1" parent="BJws64ASkt3ljexb0WcB-12">
          <mxGeometry x="60" width="60" height="29" as="geometry" />
        </mxCell>
        <mxCell id="BJws64ASkt3ljexb0WcB-15" value="title" style="shape=partialRectangle;html=1;whiteSpace=wrap;connectable=0;fillColor=none;top=0;left=0;bottom=0;right=0;overflow=hidden;" vertex="1" parent="BJws64ASkt3ljexb0WcB-12">
          <mxGeometry x="120" width="60" height="29" as="geometry" />
        </mxCell>
        <mxCell id="BJws64ASkt3ljexb0WcB-28" value="descr" style="shape=partialRectangle;html=1;whiteSpace=wrap;connectable=0;fillColor=none;top=0;left=0;bottom=0;right=0;overflow=hidden;" vertex="1" parent="BJws64ASkt3ljexb0WcB-12">
          <mxGeometry x="180" width="60" height="29" as="geometry" />
        </mxCell>
        <mxCell id="BJws64ASkt3ljexb0WcB-32" value="ptrviews" style="shape=partialRectangle;html=1;whiteSpace=wrap;connectable=0;fillColor=none;top=0;left=0;bottom=0;right=0;overflow=hidden;" vertex="1" parent="BJws64ASkt3ljexb0WcB-12">
          <mxGeometry x="240" width="60" height="29" as="geometry" />
        </mxCell>
        <mxCell id="BJws64ASkt3ljexb0WcB-36" value="Public" style="shape=partialRectangle;html=1;whiteSpace=wrap;connectable=0;fillColor=none;top=0;left=0;bottom=0;right=0;overflow=hidden;" vertex="1" parent="BJws64ASkt3ljexb0WcB-12">
          <mxGeometry x="300" width="60" height="29" as="geometry" />
        </mxCell>
        <mxCell id="BJws64ASkt3ljexb0WcB-43" value="CUDB" style="shape=note;whiteSpace=wrap;html=1;backgroundOutline=1;darkOpacity=0.05;" vertex="1" parent="WIyWlLk6GJQsqaUBKTNV-1">
          <mxGeometry x="240" y="630" width="80" height="100" as="geometry" />
        </mxCell>
        <mxCell id="BJws64ASkt3ljexb0WcB-44" value="Statics" style="shape=note;whiteSpace=wrap;html=1;backgroundOutline=1;darkOpacity=0.05;" vertex="1" parent="WIyWlLk6GJQsqaUBKTNV-1">
          <mxGeometry x="390" y="630" width="80" height="100" as="geometry" />
        </mxCell>
        <mxCell id="BJws64ASkt3ljexb0WcB-45" value="Login" style="shape=note;whiteSpace=wrap;html=1;backgroundOutline=1;darkOpacity=0.05;" vertex="1" parent="WIyWlLk6GJQsqaUBKTNV-1">
          <mxGeometry x="570" y="640" width="80" height="100" as="geometry" />
        </mxCell>
        <mxCell id="BJws64ASkt3ljexb0WcB-48" value="" style="endArrow=classic;startArrow=classic;html=1;exitX=0.188;exitY=-0.03;exitDx=0;exitDy=0;exitPerimeter=0;" edge="1" parent="WIyWlLk6GJQsqaUBKTNV-1" source="BJws64ASkt3ljexb0WcB-45">
          <mxGeometry width="50" height="50" relative="1" as="geometry">
            <mxPoint x="370" y="570" as="sourcePoint" />
            <mxPoint x="460" y="540" as="targetPoint" />
          </mxGeometry>
        </mxCell>
        <mxCell id="BJws64ASkt3ljexb0WcB-49" value="" style="shape=flexArrow;endArrow=classic;startArrow=classic;html=1;exitX=0;exitY=0;exitDx=80;exitDy=65;exitPerimeter=0;" edge="1" parent="WIyWlLk6GJQsqaUBKTNV-1" source="BJws64ASkt3ljexb0WcB-44" target="BJws64ASkt3ljexb0WcB-45">
          <mxGeometry width="50" height="50" relative="1" as="geometry">
            <mxPoint x="370" y="570" as="sourcePoint" />
            <mxPoint x="420" y="520" as="targetPoint" />
            <Array as="points" />
          </mxGeometry>
        </mxCell>
        <mxCell id="BJws64ASkt3ljexb0WcB-51" value="" style="endArrow=classic;startArrow=classic;html=1;entryX=0.5;entryY=1;entryDx=0;entryDy=0;exitX=0.5;exitY=0;exitDx=0;exitDy=0;exitPerimeter=0;" edge="1" parent="WIyWlLk6GJQsqaUBKTNV-1" source="BJws64ASkt3ljexb0WcB-44" target="BJws64ASkt3ljexb0WcB-41">
          <mxGeometry width="50" height="50" relative="1" as="geometry">
            <mxPoint x="370" y="570" as="sourcePoint" />
            <mxPoint x="420" y="520" as="targetPoint" />
          </mxGeometry>
        </mxCell>
        <mxCell id="BJws64ASkt3ljexb0WcB-52" value="" style="endArrow=classic;startArrow=classic;html=1;exitX=0.65;exitY=1;exitDx=0;exitDy=0;exitPerimeter=0;" edge="1" parent="WIyWlLk6GJQsqaUBKTNV-1" source="BJws64ASkt3ljexb0WcB-43">
          <mxGeometry width="50" height="50" relative="1" as="geometry">
            <mxPoint x="290" y="750" as="sourcePoint" />
            <mxPoint x="530" y="690" as="targetPoint" />
            <Array as="points">
              <mxPoint x="390" y="750" />
              <mxPoint x="480" y="750" />
            </Array>
          </mxGeometry>
        </mxCell>
        <mxCell id="BJws64ASkt3ljexb0WcB-53" value="" style="endArrow=classic;startArrow=classic;html=1;entryX=0.425;entryY=0.95;entryDx=0;entryDy=0;entryPerimeter=0;" edge="1" parent="WIyWlLk6GJQsqaUBKTNV-1" source="BJws64ASkt3ljexb0WcB-43" target="BJws64ASkt3ljexb0WcB-41">
          <mxGeometry width="50" height="50" relative="1" as="geometry">
            <mxPoint x="370" y="570" as="sourcePoint" />
            <mxPoint x="420" y="520" as="targetPoint" />
          </mxGeometry>
        </mxCell>
        <mxCell id="BJws64ASkt3ljexb0WcB-54" value="" style="shape=table;html=1;whiteSpace=wrap;startSize=0;container=1;collapsible=0;childLayout=tableLayout;" vertex="1" parent="WIyWlLk6GJQsqaUBKTNV-1">
          <mxGeometry x="20" y="465" width="280" height="40" as="geometry" />
        </mxCell>
        <mxCell id="BJws64ASkt3ljexb0WcB-55" value="" style="shape=partialRectangle;html=1;whiteSpace=wrap;collapsible=0;dropTarget=0;pointerEvents=0;fillColor=none;top=0;left=0;bottom=0;right=0;points=[[0,0.5],[1,0.5]];portConstraint=eastwest;" vertex="1" parent="BJws64ASkt3ljexb0WcB-54">
          <mxGeometry width="280" height="40" as="geometry" />
        </mxCell>
        <mxCell id="BJws64ASkt3ljexb0WcB-56" value="id" style="shape=partialRectangle;html=1;whiteSpace=wrap;connectable=0;fillColor=none;top=0;left=0;bottom=0;right=0;overflow=hidden;" vertex="1" parent="BJws64ASkt3ljexb0WcB-55">
          <mxGeometry width="60" height="40" as="geometry" />
        </mxCell>
        <mxCell id="BJws64ASkt3ljexb0WcB-57" value="login" style="shape=partialRectangle;html=1;whiteSpace=wrap;connectable=0;fillColor=none;top=0;left=0;bottom=0;right=0;overflow=hidden;" vertex="1" parent="BJws64ASkt3ljexb0WcB-55">
          <mxGeometry x="60" width="70" height="40" as="geometry" />
        </mxCell>
        <mxCell id="BJws64ASkt3ljexb0WcB-58" value="email" style="shape=partialRectangle;html=1;whiteSpace=wrap;connectable=0;fillColor=none;top=0;left=0;bottom=0;right=0;overflow=hidden;" vertex="1" parent="BJws64ASkt3ljexb0WcB-55">
          <mxGeometry x="130" width="50" height="40" as="geometry" />
        </mxCell>
        <mxCell id="BJws64ASkt3ljexb0WcB-67" value="pwd" style="shape=partialRectangle;html=1;whiteSpace=wrap;connectable=0;fillColor=none;top=0;left=0;bottom=0;right=0;overflow=hidden;" vertex="1" parent="BJws64ASkt3ljexb0WcB-55">
          <mxGeometry x="180" width="50" height="40" as="geometry" />
        </mxCell>
        <mxCell id="BJws64ASkt3ljexb0WcB-68" value="hash" style="shape=partialRectangle;html=1;whiteSpace=wrap;connectable=0;fillColor=none;top=0;left=0;bottom=0;right=0;overflow=hidden;" vertex="1" parent="BJws64ASkt3ljexb0WcB-55">
          <mxGeometry x="230" width="50" height="40" as="geometry" />
        </mxCell>
        <mxCell id="BJws64ASkt3ljexb0WcB-69" value="" style="endArrow=classic;startArrow=classic;html=1;" edge="1" parent="WIyWlLk6GJQsqaUBKTNV-1" source="BJws64ASkt3ljexb0WcB-55">
          <mxGeometry width="50" height="50" relative="1" as="geometry">
            <mxPoint x="370" y="540" as="sourcePoint" />
            <mxPoint x="160" y="370" as="targetPoint" />
            <Array as="points">
              <mxPoint x="330" y="480" />
              <mxPoint x="330" y="460" />
              <mxPoint x="360" y="460" />
              <mxPoint x="360" y="400" />
              <mxPoint x="320" y="370" />
            </Array>
          </mxGeometry>
        </mxCell>
      </root>
    </mxGraphModel>
  </diagram>
</mxfile>
